<svg width="719" height="699" viewBox="0 0 719 699" fill="none" xmlns="http://www.w3.org/2000/svg">
<path d="M404.021 550.317C398.933 560.493 393.633 570.669 387.485 580.315C367.451 611.691 343.707 639.569 311.483 659.285C297.385 667.977 282.333 674.655 266.433 679.425C243.219 686.421 219.581 688.859 195.413 686.845C174.637 685.043 154.603 679.955 135.841 671.051C112.415 659.921 91.7447 644.975 75.5267 624.305C73.1947 621.337 70.9687 618.157 68.6367 615.083C68.2127 614.447 67.7887 613.493 66.8347 613.811C65.7747 614.129 66.3047 615.189 66.3047 615.825C66.8347 624.305 67.4707 632.785 68.0007 641.159C68.0007 641.583 68.1067 641.901 68.1067 643.067C60.0507 634.163 52.4187 625.895 46.4827 616.249C31.1127 591.763 22.2087 564.945 17.9687 536.431C15.1067 517.245 14.3647 497.953 16.4847 478.661C18.6047 459.157 23.5867 440.501 31.2187 422.481C31.6427 421.421 33.1267 420.255 31.5367 419.195C30.2647 418.347 29.6287 419.831 28.7807 420.361C19.4527 426.827 10.1247 433.293 0.0546875 440.289C2.28069 433.505 4.93069 427.675 7.58069 421.845C19.7707 394.391 36.7307 370.223 56.0227 347.433C62.0647 340.331 68.4247 333.653 74.7847 326.869C76.5867 324.961 77.4347 325.067 78.8127 327.187C81.8867 331.745 81.4627 336.621 80.7207 341.603C78.6007 355.065 75.6327 368.421 73.9367 381.989C73.4067 386.441 73.3007 390.999 72.9827 396.299C85.9147 383.367 99.3767 372.025 114.111 362.273C128.739 352.521 143.473 343.087 161.069 336.409C152.271 351.779 146.759 367.043 146.123 384.321C151.211 381.989 155.345 378.809 159.797 376.265C167.641 371.813 175.167 366.725 184.389 365.241C192.127 363.969 199.653 364.817 207.073 367.255C210.253 368.315 207.815 369.375 207.073 370.117C197.533 380.081 188.523 390.469 180.679 401.917C165.839 423.753 156.193 447.603 153.543 474.103C151.211 497.211 154.603 519.153 166.581 539.399C178.877 560.281 196.579 573.955 220.641 578.195C234.633 580.739 248.201 579.043 261.451 573.637C292.085 561.235 314.239 538.975 332.789 512.581C336.393 507.387 339.785 501.981 342.965 496.575C344.131 494.561 345.085 494.455 346.781 495.833C354.201 501.981 361.621 508.129 368.935 514.277C380.065 523.499 391.089 532.827 402.113 542.155C405.823 545.229 406.035 546.289 404.021 550.317ZM624.077 476.435C617.081 475.269 610.085 474.951 602.559 475.057C603.725 476.965 605.103 477.601 606.481 478.343C611.145 480.675 615.597 483.431 619.625 486.611C642.203 504.525 641.673 537.809 618.353 554.133C602.771 564.945 585.281 568.655 566.519 567.065C564.505 566.853 562.279 567.171 560.265 566.111C594.291 533.781 573.727 477.495 549.983 468.485C550.301 470.287 550.513 471.877 550.831 473.467C555.177 495.833 535.779 518.199 510.763 513.429C501.859 511.733 494.863 506.751 488.079 501.239C461.897 479.615 435.821 457.991 409.639 436.473C402.219 430.325 393.739 426.297 384.199 424.707C376.885 423.541 369.571 423.965 362.257 423.117C355.473 422.375 351.021 418.983 349.007 412.411C347.523 407.535 346.781 402.553 345.721 397.571C343.389 386.547 337.135 379.763 325.687 378.067C319.751 377.219 313.815 376.901 307.879 376.265C298.233 375.099 289.647 372.025 283.605 363.863C280.637 359.835 278.835 355.171 276.927 350.189C276.397 351.355 276.079 351.991 275.867 352.733C272.157 365.559 274.595 376.901 284.241 386.335C290.707 392.695 298.339 397.677 305.229 403.613C312.331 409.761 317.313 417.287 317.207 426.933C317.101 445.695 324.203 461.383 337.771 473.891C353.883 488.943 371.797 501.875 388.333 516.397C395.965 523.075 404.127 529.223 411.759 535.901C422.465 545.335 428.507 557.207 428.825 571.835C429.143 583.389 428.825 594.943 428.189 606.391C426.599 631.407 434.231 652.713 453.629 669.143C460.413 674.867 468.045 679.001 476.737 681.863C476.631 679.955 475.677 678.789 475.147 677.517C468.681 663.631 464.759 649.321 466.773 633.845C467.833 625.789 470.801 618.581 477.267 613.281C478.963 611.903 480.023 611.585 480.341 614.447C481.295 623.457 483.733 632.149 487.231 640.523C494.015 656.741 504.085 670.521 518.183 681.227C535.249 694.159 554.859 699.035 575.635 699.459C605.315 700.095 631.391 689.919 654.499 671.793C657.785 669.249 660.541 665.963 663.297 662.359C656.513 662.253 650.153 662.889 643.687 662.783C630.967 662.465 618.777 660.557 607.117 655.575C602.665 653.667 598.531 651.123 595.245 646.671C620.473 648.579 639.341 645.187 659.163 633.951C685.981 618.793 702.199 596.109 704.001 564.945C705.379 540.777 696.051 520.319 679.303 503.253C663.721 487.671 644.959 479.827 624.077 476.435ZM29.9467 313.167C37.3667 307.549 44.3627 301.037 52.2067 296.479C66.7287 288.211 81.3567 277.049 95.8787 268.781C99.2707 266.873 102.557 264.541 105.419 261.785C110.613 256.803 111.037 251.821 106.691 245.779C101.179 238.147 94.3947 231.575 87.6107 225.109C84.7487 222.247 82.2047 218.961 77.6467 216.523C95.4547 214.721 112.097 216.735 129.163 219.703C126.301 213.131 123.651 207.195 122.273 200.729C120.047 191.083 120.047 181.437 122.379 171.791C122.591 171.049 122.379 169.989 123.439 169.883C124.181 169.777 124.499 170.519 124.817 171.155C134.039 188.857 148.985 200.623 165.627 210.799C179.831 219.597 194.777 227.229 208.663 236.557C216.719 242.069 224.033 248.429 230.181 256.061C230.393 256.273 230.711 256.379 231.347 256.697C227.849 246.733 222.019 238.571 215.023 231.257C210.571 226.593 205.695 222.353 200.289 218.855C196.049 216.205 194.353 212.389 193.399 207.831C188.205 182.815 190.643 158.647 200.713 135.115C201.561 133.207 202.197 130.133 204.317 130.345C205.907 130.451 204.953 133.631 205.165 135.433C206.967 155.573 215.553 172.639 228.167 188.009C237.071 198.821 247.035 208.785 257.635 218.007C277.775 235.497 297.067 253.941 314.345 274.293C314.875 274.823 315.193 275.565 315.617 276.201C315.829 275.989 316.147 275.777 316.359 275.565C314.027 270.371 311.165 265.389 308.091 260.619C299.187 246.945 287.739 235.603 275.761 224.579C265.797 215.357 255.727 206.241 245.869 197.019C240.993 192.461 238.343 186.419 237.707 179.953C236.435 165.643 238.025 151.757 244.173 138.613C244.491 137.977 244.703 137.341 245.445 137.129C246.717 137.659 246.293 138.825 246.293 139.779C247.353 152.817 251.169 165.007 257.953 176.243C266.115 189.705 276.503 201.259 287.951 211.965C301.519 224.685 315.829 236.875 328.019 251.079C338.513 263.269 349.431 275.353 355.155 290.935C358.653 300.475 359.925 310.227 358.441 320.297C358.123 322.523 358.441 323.689 360.667 324.749C368.617 328.247 373.069 334.289 373.281 343.511C382.927 340.437 388.969 333.547 394.481 325.809C402.219 344.253 384.517 393.225 358.335 403.613C358.547 398.631 359.925 393.755 359.077 388.773C357.275 378.703 351.763 371.919 342.223 368.527C331.517 364.711 320.493 363.333 309.151 364.181C304.699 364.499 304.699 364.393 306.289 360.365C308.409 355.065 311.271 349.977 312.331 344.253C313.391 337.999 310.953 333.971 304.699 332.911C290.601 330.579 276.503 330.261 262.193 332.699C252.229 334.395 242.159 335.879 232.089 337.363C230.711 337.575 229.439 337.787 227.743 339.059C232.089 339.695 235.905 340.225 239.615 340.755C245.233 341.497 250.851 342.239 256.469 342.875C258.483 343.087 258.907 343.723 258.165 345.737C256.045 351.037 254.031 356.443 252.017 361.849C250.321 366.513 249.685 371.283 249.685 376.159C249.791 382.519 254.349 385.487 260.285 383.261C262.193 382.519 264.737 381.565 266.115 382.413C267.705 383.473 266.115 385.911 265.797 387.713C264.949 393.013 263.677 398.313 263.783 403.825C263.995 411.245 267.069 414.531 274.595 414.743C277.245 414.849 280.001 414.425 282.651 414.213C284.453 414.001 284.771 414.637 284.241 416.227C282.969 419.831 280.743 422.799 278.093 425.555C263.783 440.183 246.187 447.497 226.047 449.617C226.047 447.921 227.213 447.179 228.061 446.331C233.361 440.289 238.767 434.353 243.961 428.311C244.491 427.675 245.869 427.145 245.127 425.873C244.491 424.813 243.325 425.131 242.371 425.237C235.905 426.085 229.439 427.039 222.867 427.781C221.807 427.887 220.217 428.841 219.581 427.251C219.051 425.979 220.535 425.343 221.277 424.601C227.849 418.135 232.725 410.609 234.633 401.493C239.509 378.703 228.273 361.001 205.589 355.913C192.233 352.839 179.301 354.111 166.899 360.047C165.945 360.471 165.097 360.895 164.143 361.213C163.825 361.319 163.507 361.213 162.659 361.107C166.793 350.719 172.835 342.027 180.361 334.183C187.993 326.339 196.897 320.297 207.073 314.785C195.731 311.817 185.237 309.061 174.001 306.199C192.021 294.433 211.737 289.557 231.877 285.953C215.341 284.469 199.017 285.211 183.011 290.087C167.005 294.963 152.907 303.231 140.187 314.997C150.469 316.905 160.009 318.601 169.655 320.403C154.709 326.021 140.399 332.805 126.725 340.861C113.051 348.917 100.331 358.245 87.7167 368.951C89.0947 362.379 90.4727 356.549 91.5327 350.719C92.8047 344.147 93.1227 337.469 91.7447 330.791C89.3067 319.237 81.1447 311.817 69.3787 309.591C59.7327 307.789 48 311.699 40.6527 312.379C37.5 312.699 33.9747 313.167 29.9467 313.167ZM282.757 281.713C284.559 300.581 297.491 314.891 314.345 314.361C308.091 299.203 298.021 288.073 282.757 281.713ZM97.5747 191.719C101.285 198.397 105.949 204.227 113.051 209.103C107.327 183.557 111.037 160.025 122.167 136.387C125.665 147.729 129.905 157.799 135.735 166.915C146.335 183.557 160.539 196.489 177.923 205.817C178.877 206.347 179.937 207.513 180.891 206.771C181.845 206.029 181.209 204.651 181.103 203.591C179.195 188.009 179.619 172.427 182.481 156.951C183.541 150.803 185.343 144.867 184.177 138.295C180.467 118.155 184.919 99.7108 198.063 83.5988C215.871 61.7628 251.487 59.5368 271.097 79.3588C284.347 92.7148 289.223 109.569 288.905 128.013C288.587 145.927 283.923 162.569 274.277 177.833C273.429 179.211 273.323 180.059 274.383 181.437C278.623 186.737 282.863 192.037 287.527 196.913C301.519 211.753 317.207 224.685 331.729 238.995C333.531 240.797 334.273 240.585 335.757 238.677C349.643 220.763 359.607 200.941 367.239 179.741C375.189 157.587 378.475 134.903 375.295 111.371C372.645 92.6088 366.497 75.0128 356.639 58.7948C343.707 37.5948 326.005 21.5888 303.215 11.4128C287.421 4.41675 270.779 0.706766 253.395 -0.0352342C238.555 -0.671234 224.033 0.600763 209.723 4.41676C191.703 9.29276 175.909 18.0908 162.553 31.3408C161.811 32.0828 161.069 33.4608 159.797 32.6128C158.843 31.9768 159.585 30.7048 159.797 29.7508C160.963 22.9668 162.235 16.1828 163.507 8.76275C133.297 31.1288 114.853 60.5968 104.677 95.7887C103.087 87.3088 101.497 78.9348 99.9067 70.1368C95.7727 74.3768 91.6387 81.9028 89.3067 89.0048C84.0067 104.587 82.5227 120.593 83.3707 136.811C84.4307 155.997 88.1407 174.653 97.5747 191.719ZM717.145 296.341C712.481 292.737 707.923 289.027 703.153 285.529C683.119 270.477 660.965 260.407 635.843 257.439C620.261 255.637 604.997 257.227 589.945 261.573C582.207 263.799 574.575 266.237 566.943 268.357C564.187 269.099 561.219 268.993 559.311 266.343C557.721 264.011 558.675 260.089 561.219 257.757C563.975 255.213 566.837 252.881 569.699 250.549C573.303 247.687 577.119 244.825 580.935 241.963C578.709 240.903 576.695 241.645 574.787 242.069C558.887 245.461 545.531 253.835 532.917 263.587C523.695 270.689 514.473 277.791 505.463 285.105C502.389 287.543 498.997 287.331 495.499 287.331C494.227 287.331 494.121 286.483 494.121 285.529C494.015 282.243 494.121 279.063 495.923 275.989C498.467 271.749 500.799 267.403 503.343 262.845C474.617 276.943 429.461 334.183 427.341 359.093C436.987 348.811 447.375 339.483 458.717 331.427C484.793 312.771 513.201 298.991 544.895 292.949C553.587 291.253 562.385 290.935 571.077 291.571C547.227 295.281 525.073 303.125 504.191 314.785C471.225 333.123 443.135 357.397 418.543 385.911C411.229 394.391 404.233 403.189 397.555 412.093C395.011 415.485 395.011 415.485 398.827 417.181C404.233 419.619 409.321 422.481 413.985 426.085C423.101 433.293 432.005 440.819 441.121 448.027C444.725 450.889 444.831 450.783 446.739 446.649C458.611 420.361 472.497 395.133 489.351 371.601C497.407 360.365 505.781 349.447 515.427 339.589C524.649 330.155 535.779 323.371 548.393 319.449C570.653 312.559 592.595 311.817 613.371 324.749C617.505 327.293 621.427 326.869 625.031 324.113C633.299 317.859 643.051 314.891 652.697 311.817C673.473 305.033 694.673 302.171 716.509 304.079C717.357 304.185 718.311 304.609 718.947 303.549C719.477 302.171 718.523 297.401 717.145 296.341Z" fill="black"/>
</svg>
