<svg width="1734" height="1198" viewBox="0 0 1734 1198" fill="none" xmlns="http://www.w3.org/2000/svg">
<path fill-rule="evenodd" clip-rule="evenodd" d="M358.941 302.201C342.341 302.201 326.941 299.601 312.741 294.401C298.741 289.001 286.541 281.401 276.141 271.601C265.941 261.801 257.941 250.301 252.141 237.101C246.341 223.701 243.441 209.001 243.441 193.001C243.441 177.001 246.341 162.401 252.141 149.201C257.941 135.801 265.941 124.201 276.141 114.401C286.541 104.601 298.741 97.1008 312.741 91.9008C326.941 86.5008 342.341 83.8008 358.941 83.8008C378.341 83.8008 395.641 87.2008 410.841 94.0008C426.241 100.801 439.041 110.601 449.241 123.401L411.441 157.601C404.641 149.601 397.141 143.501 388.941 139.301C380.941 135.101 371.941 133.001 361.941 133.001C353.341 133.001 345.441 134.401 338.241 137.201C331.041 140.001 324.841 144.101 319.641 149.501C314.641 154.701 310.641 161.001 307.641 168.401C304.841 175.801 303.441 184.001 303.441 193.001C303.441 202.001 304.841 210.201 307.641 217.601C310.641 225.001 314.641 231.401 319.641 236.801C324.841 242.001 331.041 246.001 338.241 248.801C345.441 251.601 353.341 253.001 361.941 253.001C371.941 253.001 380.941 250.901 388.941 246.701C397.141 242.501 404.641 236.401 411.441 228.401L449.241 262.601C439.041 275.201 426.241 285.001 410.841 292.001C395.641 298.801 378.341 302.201 358.941 302.201ZM537.91 300.701C524.71 300.701 512.81 298.101 502.21 292.901C491.81 287.701 483.61 279.601 477.61 268.601C471.81 257.401 468.91 243.301 468.91 226.301V135.401H525.91V217.001C525.91 229.601 528.21 238.601 532.81 244.001C537.61 249.401 544.31 252.101 552.91 252.101C558.51 252.101 563.61 250.801 568.21 248.201C572.81 245.601 576.51 241.501 579.31 235.901C582.11 230.101 583.51 222.701 583.51 213.701V135.401H640.51V298.001H586.21V280.999C582.212 285.389 577.612 289.056 572.41 292.001C561.81 297.801 550.31 300.701 537.91 300.701ZM720.638 300C720.638 300 736 281 752 269.5L791.5 240.5L787 267.5C801.5 261 815.252 258.765 815.252 258.765C816.234 255.102 816.725 251.281 816.725 247.301C816.725 238.101 815.025 230.601 811.625 224.801C808.225 218.801 803.625 214.101 797.825 210.701C792.225 207.101 785.925 204.401 778.925 202.601C772.125 200.801 765.325 199.501 758.525 198.701C751.725 197.701 745.425 196.801 739.625 196.001C734.025 195.001 729.525 193.701 726.125 192.101C722.725 190.301 721.025 187.801 721.025 184.601C721.025 181.401 722.925 178.701 726.725 176.501C730.725 174.301 737.525 173.201 747.125 173.201C754.325 173.201 761.925 174.101 769.925 175.901C777.925 177.501 785.925 180.601 793.925 185.201L811.025 146.501C803.025 141.901 793.125 138.501 781.325 136.301C769.725 133.901 758.225 132.701 746.825 132.701C729.825 132.701 715.425 135.101 703.625 139.901C691.825 144.501 682.825 150.901 676.625 159.101C670.625 167.101 667.625 176.301 667.625 186.701C667.625 195.901 669.325 203.501 672.725 209.501C676.125 215.501 680.625 220.301 686.225 223.901C692.025 227.301 698.325 229.901 705.125 231.701C712.125 233.301 719.025 234.601 725.825 235.601C732.625 236.601 738.825 237.501 744.425 238.301C750.225 239.101 754.825 240.301 758.225 241.901C761.825 243.301 763.625 245.601 763.625 248.801C763.625 252.201 761.725 254.901 757.925 256.901C754.325 258.901 747.725 259.901 738.125 259.901C728.325 259.901 718.325 258.601 708.125 256.001C697.925 253.201 689.025 249.501 681.425 244.901L664.325 283.901C672.325 288.701 682.825 292.701 695.825 295.901C703.981 297.878 712.252 299.244 720.638 300ZM907 266.5L893.172 262.133C889.726 261.045 886.236 260.112 882.686 259.434C874.501 257.871 858.776 255.191 849.405 255.67C849.405 255.67 847.888 244.744 847.888 238.601V184.001H824.188V141.401H847.888V99.1008H904.888V141.401H942.088V184.001H904.888V238.001C904.888 243.801 906.487 248.401 909.688 251.801C912.888 255.001 916.987 256.601 921.987 256.601C928.787 256.601 934.588 254.901 939.388 251.501L953.487 291.401C952.364 292.15 951.18 292.85 949.936 293.5C949.936 293.5 944.013 287.5 933 280C921.987 272.5 907 266.5 907 266.5ZM1004.98 289.901C1018.78 297.101 1034.58 300.701 1052.38 300.701C1070.18 300.701 1085.98 297.101 1099.78 289.901C1113.78 282.701 1124.68 272.801 1132.48 260.201C1140.28 247.401 1144.18 232.801 1144.18 216.401C1144.18 200.001 1140.28 185.501 1132.48 172.901C1124.68 160.301 1113.78 150.501 1099.78 143.501C1085.98 136.301 1070.18 132.701 1052.38 132.701C1034.58 132.701 1018.78 136.301 1004.98 143.501C991.18 150.501 980.28 160.301 972.28 172.901C964.48 185.501 960.58 200.001 960.58 216.401C960.58 232.801 964.48 247.401 972.28 260.201C980.28 272.801 991.18 282.701 1004.98 289.901ZM1069.78 250.901C1064.78 253.901 1058.98 255.401 1052.38 255.401C1045.98 255.401 1040.18 253.901 1034.98 250.901C1029.98 247.901 1025.88 243.501 1022.68 237.701C1019.68 231.701 1018.18 224.601 1018.18 216.401C1018.18 208.201 1019.68 201.301 1022.68 195.701C1025.88 189.901 1029.98 185.501 1034.98 182.501C1040.18 179.501 1045.98 178.001 1052.38 178.001C1058.98 178.001 1064.78 179.501 1069.78 182.501C1074.98 185.501 1079.08 189.901 1082.08 195.701C1085.08 201.301 1086.58 208.201 1086.58 216.401C1086.58 224.601 1085.08 231.701 1082.08 237.701C1079.08 243.501 1074.98 247.901 1069.78 250.901ZM1382.38 132.701C1394.98 132.701 1406.18 135.301 1415.98 140.501C1425.98 145.501 1433.78 153.301 1439.38 163.901C1445.18 174.501 1448.08 188.201 1448.08 205.001V298.001H1391.08V214.301C1391.08 202.701 1388.88 194.301 1384.48 189.101C1380.08 183.701 1374.08 181.001 1366.48 181.001C1361.08 181.001 1356.18 182.301 1351.78 184.901C1347.38 187.501 1343.98 191.501 1341.58 196.901C1339.18 202.101 1337.98 208.901 1337.98 217.301V298.001H1280.98V214.301C1280.98 202.701 1278.78 194.301 1274.38 189.101C1270.18 183.701 1264.18 181.001 1256.38 181.001C1250.78 181.001 1245.78 182.301 1241.38 184.901C1237.18 187.501 1233.78 191.501 1231.18 196.901C1228.78 202.101 1227.58 208.901 1227.58 217.301V298.001H1170.58V135.401H1224.88V152.417C1228.95 148.138 1233.55 144.565 1238.68 141.701C1249.08 135.701 1260.68 132.701 1273.48 132.701C1288.08 132.701 1300.88 136.501 1311.88 144.101C1317.47 147.792 1322.14 152.529 1325.88 158.311C1330.4 152.76 1335.74 148.023 1341.88 144.101C1353.68 136.501 1367.18 132.701 1382.38 132.701ZM585.085 875.398V1098H642.085V915.5L640.262 913.083C631.449 901.398 623.981 888.757 618 875.398H585.085ZM366.594 905V1098H425.994V1043.1H462.594C481.794 1043.1 498.294 1040 512.094 1033.8C526.094 1027.4 536.894 1018.4 544.494 1006.8C552.094 995.198 555.894 981.498 555.894 965.698C555.894 949.698 552.094 935.898 544.494 924.298C536.894 912.498 526.094 903.498 512.094 897.298C510.435 896.553 508.737 895.853 507 895.197C507 895.197 493 898.5 474.5 901.5C456 904.5 435.5 904.5 435.5 904.5L366.594 905ZM425.994 996.298H458.994C471.394 996.298 480.594 993.598 486.594 988.198C492.794 982.798 495.894 975.298 495.894 965.698C495.894 955.898 492.794 948.298 486.594 942.898C480.594 937.498 471.394 934.798 458.994 934.798H425.994V996.298ZM778.428 1098V1076.97C775.135 1083.3 770.535 1088.41 764.628 1092.3C756.028 1097.9 744.628 1100.7 730.428 1100.7C717.428 1100.7 706.428 1098.5 697.428 1094.1C688.428 1089.7 681.528 1083.7 676.728 1076.1C672.128 1068.5 669.828 1060 669.828 1050.6C669.828 1040.6 672.328 1032 677.328 1024.8C682.528 1017.4 690.428 1011.8 701.028 1008C711.628 1004 725.328 1002 742.128 1002H774.459C773.996 994.163 771.22 988.063 766.128 983.698C760.728 978.698 752.028 976.198 740.028 976.198C732.228 976.198 724.328 977.498 716.328 980.098C708.328 982.498 701.528 985.898 695.928 990.298L679.408 957L688.5 967V945.131C690.597 944.166 692.763 943.255 695 942.399C695 942.399 711 953.5 723.5 960C734.077 965.5 744.5 970 757 973.5C782 980 803 981.5 808.5 981.5C814 981.5 828.291 981 828.291 981C830.449 988.88 831.528 997.779 831.528 1007.7V1098H778.428ZM774.528 1031.7V1045.8C772.128 1052.2 768.328 1057 763.128 1060.2C758.128 1063.2 752.528 1064.7 746.328 1064.7C739.728 1064.7 734.528 1063.2 730.728 1060.2C726.928 1057.2 725.028 1053.2 725.028 1048.2C725.028 1043.2 726.828 1039.2 730.428 1036.2C734.228 1033.2 740.728 1031.7 749.928 1031.7H774.528ZM866.377 1154.7C875.177 1157.5 883.877 1158.9 892.477 1158.9C903.277 1158.9 913.077 1157.3 921.877 1154.1C930.877 1150.9 938.977 1145.3 946.177 1137.3C953.577 1129.5 960.077 1118.6 965.677 1104.6L1031.27 946.5L1030.93 946.179C1027.67 943.084 1024.98 939.434 1023 935.398H981.577L941.4 1034.75L910.358 957.5L896 964L871.5 973L860.152 976L912.651 1100.11C910.437 1104.3 907.912 1107.49 905.077 1109.7C901.477 1112.5 896.577 1113.9 890.377 1113.9C885.977 1113.9 881.477 1113 876.877 1111.2C872.477 1109.6 868.577 1107.3 865.177 1104.3L845.377 1144.2C850.777 1148.6 857.777 1152.1 866.377 1154.7ZM1238.7 1098V979.5L1244.56 976.598C1261.25 968.332 1275.59 955.999 1286.27 940.735L1290 935.398H1293V954.967C1297.16 949.676 1302.26 945.353 1308.3 941.998C1319.1 935.798 1332.2 932.698 1347.6 932.698V983.998C1345 983.598 1342.7 983.398 1340.7 983.398C1338.9 983.198 1336.9 983.098 1334.7 983.098C1323.1 983.098 1313.7 986.298 1306.5 992.698C1299.3 998.898 1295.7 1009.1 1295.7 1023.3V1098H1238.7ZM1131.42 1100.7C1112.22 1100.7 1095.42 1097.1 1081.02 1089.9C1066.82 1082.5 1055.72 1072.5 1047.72 1059.9C1039.92 1047.1 1036.02 1032.6 1036.02 1016.4C1036.02 1000.2 1039.82 985.798 1047.42 973.198C1048.99 970.613 1050.69 968.145 1052.5 965.796L1052.98 966.026C1067.63 972.995 1082.86 978.675 1098.5 983L1097.5 962L1113.5 975.09C1111.47 975.774 1109.55 976.644 1107.72 977.698C1102.72 980.698 1098.82 984.998 1096.02 990.598C1094.38 993.756 1093.22 997.256 1092.54 1001.1H1159.09C1158.52 997.621 1157.51 994.422 1156.05 991.5L1164 992.5C1169.51 992.75 1174 993 1178.34 993.375C1181.7 993.375 1185.11 993.069 1188.58 992.756L1188.59 992.756C1189.01 992.718 1189.43 992.68 1189.85 992.643C1190.4 992.594 1190.95 992.546 1191.5 992.5C1196 992.125 1209.03 990.298 1209.03 990.298C1211.29 998.417 1212.42 1007.32 1212.42 1017C1212.42 1019 1212.32 1021.3 1212.12 1023.9C1211.92 1026.5 1211.72 1028.9 1211.52 1031.1H1093.38C1094.16 1034 1095.24 1036.7 1096.62 1039.2C1100.02 1045 1104.82 1049.5 1111.02 1052.7C1117.22 1055.7 1124.62 1057.2 1133.22 1057.2C1141.22 1057.2 1148.02 1056.1 1153.62 1053.9C1159.42 1051.5 1165.12 1047.9 1170.72 1043.1L1200.72 1074.3C1192.92 1082.9 1183.32 1089.5 1171.92 1094.1C1160.52 1098.5 1147.02 1100.7 1131.42 1100.7ZM988.985 855.116C995.133 845.47 1000.43 835.294 1005.52 825.118C1007.53 821.09 1007.32 820.03 1003.61 816.956C992.589 807.628 981.565 798.3 970.435 789.078C963.121 782.93 955.701 776.782 948.281 770.634C946.585 769.256 945.631 769.362 944.465 771.376C941.285 776.782 937.893 782.188 934.289 787.382C915.739 813.776 893.585 836.036 862.951 848.438C849.701 853.844 836.133 855.54 822.141 852.996C798.079 848.756 780.377 835.082 768.081 814.2C756.103 793.954 752.711 772.012 755.043 748.904C757.693 722.404 767.339 698.554 782.179 676.718C790.023 665.27 799.033 654.882 808.573 644.918C808.71 644.78 808.905 644.632 809.113 644.475L809.113 644.475C810.025 643.783 811.164 642.919 808.573 642.056C801.153 639.618 793.627 638.77 785.889 640.042C778.066 641.301 771.463 645.153 764.852 649.01L764.844 649.015C763.664 649.703 762.484 650.392 761.297 651.066C759.671 651.994 758.088 653.008 756.486 654.034L756.484 654.035L756.483 654.036C753.697 655.82 750.852 657.642 747.623 659.122C748.259 641.844 753.771 626.58 762.569 611.21C744.973 617.888 730.239 627.322 715.611 637.074C700.877 646.826 687.415 658.168 674.483 671.1C674.574 669.572 674.648 668.105 674.72 666.685L674.721 666.675C674.897 663.174 675.06 659.955 675.437 656.79C676.457 648.625 677.938 640.538 679.418 632.458L679.418 632.456C680.398 627.109 681.376 621.764 682.221 616.404C682.963 611.422 683.387 606.546 680.313 601.988C678.935 599.868 678.087 599.762 676.285 601.67C675.508 602.498 674.732 603.324 673.956 604.15L673.956 604.151L673.955 604.151C668.376 610.091 662.827 615.999 657.523 622.234C638.231 645.024 621.271 669.192 609.081 696.646C606.431 702.476 603.781 708.306 601.555 715.09C611.547 708.147 620.809 701.727 630.065 695.311L630.281 695.162C630.52 695.012 630.742 694.787 630.966 694.559C631.538 693.98 632.123 693.387 633.037 693.996C634.232 694.792 633.69 695.649 633.167 696.476C632.995 696.749 632.824 697.019 632.719 697.282C625.087 715.302 620.105 733.958 617.985 753.462C615.865 772.754 616.607 792.046 619.469 811.232C623.709 839.746 632.613 866.564 647.983 891.05C653.627 900.222 660.805 908.148 668.423 916.56L668.423 916.561L668.976 917.171L669.607 917.868C669.607 917.141 669.565 916.743 669.534 916.444V916.444C669.516 916.264 669.501 916.119 669.501 915.96C669.245 911.928 668.966 907.871 668.685 903.802L668.685 903.795L668.684 903.781L668.683 903.771L668.682 903.754C668.381 899.388 668.078 895.007 667.805 890.626C667.805 890.561 667.799 890.492 667.791 890.42C667.779 890.323 667.761 890.22 667.743 890.115C667.642 889.527 667.527 888.854 668.335 888.612C669.164 888.335 669.593 889.02 669.969 889.622C670.026 889.712 670.081 889.801 670.137 889.884C671.099 891.152 672.043 892.439 672.985 893.721C674.324 895.546 675.657 897.362 677.027 899.106C693.245 919.776 713.915 934.722 737.341 945.852C756.103 954.756 776.137 959.844 796.913 961.646C821.081 963.66 844.719 961.222 867.933 954.226C883.833 949.456 898.885 942.778 912.983 934.086C945.207 914.37 968.951 886.492 988.985 855.116ZM1204.06 749.858C1211.58 749.752 1218.58 750.07 1225.58 751.236C1246.46 754.628 1265.22 762.472 1280.8 778.054C1297.55 795.12 1306.88 815.578 1305.5 839.746C1303.7 870.91 1287.48 893.594 1260.66 908.752C1240.84 919.988 1221.97 923.38 1196.74 921.472C1200.03 925.924 1204.16 928.468 1208.62 930.376C1220.28 935.358 1232.47 937.266 1245.19 937.584C1248.39 937.636 1251.57 937.506 1254.79 937.375L1254.79 937.375H1254.79H1254.79C1258.06 937.241 1261.38 937.106 1264.8 937.16C1262.04 940.764 1259.28 944.05 1256 946.594C1232.89 964.72 1206.81 974.896 1177.13 974.26C1156.36 973.836 1136.75 968.96 1119.68 956.028C1105.58 945.322 1095.51 931.542 1088.73 915.324C1085.23 906.95 1082.79 898.258 1081.84 889.248C1081.52 886.386 1080.46 886.704 1078.77 888.082C1072.3 893.382 1069.33 900.59 1068.27 908.646C1066.26 924.122 1070.18 938.432 1076.65 952.318C1076.79 952.673 1076.98 953.02 1077.16 953.378C1077.64 954.299 1078.16 955.289 1078.24 956.664C1069.54 953.802 1061.91 949.668 1055.13 943.944C1035.73 927.514 1028.1 906.208 1029.69 881.192C1030.32 869.744 1030.64 858.19 1030.32 846.636C1030.01 832.008 1023.96 820.136 1013.26 810.702C1009.44 807.363 1005.49 804.156 1001.55 800.95C997.597 797.743 993.649 794.537 989.833 791.198C982.714 784.946 975.339 778.988 967.963 773.029L967.961 773.028C958.205 765.147 948.446 757.263 939.271 748.692C925.703 736.184 918.601 720.496 918.707 701.734C918.813 692.088 913.831 684.562 906.729 678.414C903.964 676.032 901.08 673.803 898.199 671.578C893.901 668.258 889.612 664.944 885.741 661.136C876.095 651.702 873.657 640.36 877.367 627.534C877.543 626.917 877.792 626.374 878.175 625.539L878.176 625.537L878.177 625.536C878.223 625.436 878.271 625.331 878.321 625.222L878.385 625.081L878.427 624.99C880.335 629.972 882.137 634.636 885.105 638.664C891.147 646.826 899.733 649.9 909.379 651.066C911.605 651.304 913.83 651.498 916.056 651.692C919.766 652.015 923.477 652.338 927.187 652.868C938.635 654.564 944.889 661.348 947.221 672.372C947.533 673.838 947.817 675.304 948.101 676.767C948.782 680.277 949.459 683.771 950.507 687.212C952.521 693.784 956.973 697.176 963.757 697.918C967.007 698.295 970.258 698.42 973.509 698.546C977.572 698.703 981.635 698.86 985.699 699.508C995.239 701.098 1003.72 705.126 1011.14 711.274C1029.14 726.071 1047.1 740.919 1065.07 755.782L1065.11 755.817L1065.14 755.837L1065.21 755.895C1073.33 762.608 1081.45 769.324 1089.58 776.04C1096.36 781.552 1103.36 786.534 1112.26 788.23C1137.28 793 1156.68 770.634 1152.33 748.268C1152.14 747.321 1151.99 746.374 1151.83 745.383C1151.72 744.709 1151.61 744.015 1151.48 743.286C1175.23 752.296 1195.79 808.582 1161.76 840.912C1163.22 841.676 1164.78 841.724 1166.29 841.77C1166.88 841.789 1167.46 841.806 1168.02 841.866C1186.78 843.456 1204.27 839.746 1219.85 828.934C1243.17 812.61 1243.7 779.326 1221.12 761.412C1217.1 758.232 1212.64 755.476 1207.98 753.144C1207.91 753.107 1207.84 753.07 1207.78 753.034L1207.69 752.987C1206.41 752.305 1205.14 751.63 1204.06 749.858ZM638.461 582.41L638.46 582.41C636.138 584.292 633.814 586.175 631.447 587.968C634.789 587.968 637.785 587.646 640.509 587.353H640.509L640.514 587.353C641.071 587.293 641.617 587.234 642.153 587.18C644.429 586.969 647.127 586.448 650.053 585.883L650.054 585.883C656.571 584.625 664.222 583.148 670.879 584.392C682.645 586.618 690.807 594.038 693.245 605.592C694.623 612.27 694.305 618.948 693.033 625.52C692.33 629.385 691.488 633.249 690.598 637.33C690.146 639.406 689.681 641.536 689.217 643.752C701.831 633.046 714.551 623.718 728.225 615.662C741.899 607.606 756.209 600.822 771.155 595.204C766.047 594.25 760.97 593.325 755.796 592.383L755.782 592.381C751.189 591.545 746.52 590.695 741.687 589.798C754.407 578.032 768.505 569.764 784.511 564.888C800.517 560.012 816.841 559.27 833.377 560.754C813.237 564.358 793.521 569.234 775.501 581C785.599 583.572 795.098 586.059 805.152 588.69L808.573 589.586C798.397 595.098 789.493 601.14 781.861 608.984C774.335 616.828 768.293 625.52 764.159 635.908C764.391 635.937 764.583 635.966 764.747 635.99C765.181 636.056 765.412 636.091 765.643 636.014C766.369 635.772 767.033 635.468 767.73 635.15L767.734 635.148C767.951 635.049 768.172 634.948 768.399 634.848C780.801 628.912 793.733 627.64 807.089 630.714C829.773 635.802 841.009 653.504 836.133 676.294C834.225 685.41 829.349 692.936 822.777 699.402C822.601 699.577 822.384 699.747 822.161 699.921C821.445 700.481 820.676 701.081 821.081 702.052C821.566 703.266 822.608 702.996 823.546 702.754C823.71 702.712 823.871 702.67 824.025 702.637C824.143 702.612 824.258 702.593 824.367 702.582C828.843 702.076 833.269 701.473 837.68 700.871L837.681 700.871C839.747 700.589 841.809 700.308 843.871 700.038C843.988 700.025 844.109 700.008 844.231 699.992C845.104 699.874 846.069 699.744 846.627 700.674C847.187 701.635 846.538 702.172 845.958 702.652C845.771 702.807 845.59 702.956 845.461 703.112C842.321 706.764 839.105 710.377 835.881 713.998L835.878 714C833.769 716.37 831.657 718.742 829.561 721.132C829.421 721.271 829.273 721.408 829.123 721.546C828.361 722.249 827.547 723 827.547 724.418C847.687 722.298 865.283 714.984 879.593 700.356C882.243 697.6 884.469 694.632 885.741 691.028C886.271 689.438 885.953 688.802 884.151 689.014C883.413 689.073 882.668 689.148 881.918 689.224L881.91 689.225C879.969 689.421 878.005 689.62 876.095 689.544C868.569 689.332 865.495 686.046 865.283 678.626C865.201 674.384 865.936 670.268 866.665 666.18C866.883 664.956 867.101 663.735 867.297 662.514C867.386 662.009 867.575 661.454 867.766 660.894L867.766 660.893C868.256 659.453 868.759 657.977 867.615 657.214C866.237 656.366 863.693 657.32 861.785 658.062C855.849 660.288 851.291 657.32 851.185 650.96C851.185 646.084 851.821 641.314 853.517 636.65L853.517 636.648L853.518 636.647C855.531 631.242 857.545 625.837 859.665 620.538C860.407 618.524 859.983 617.888 857.969 617.676C852.351 617.04 846.733 616.298 841.115 615.556C840.362 615.448 839.604 615.34 838.839 615.232L837.437 615.034C834.86 614.669 832.172 614.288 829.243 613.86C830.939 612.588 832.211 612.376 833.589 612.164L833.593 612.163L833.597 612.162C843.664 610.679 853.731 609.195 863.693 607.5C878.003 605.062 892.101 605.38 906.199 607.712C912.453 608.772 914.891 612.8 913.831 619.054C913.074 623.139 911.4 626.9 909.732 630.646C909.063 632.148 908.396 633.648 907.789 635.166C906.199 639.194 906.199 639.3 910.651 638.982C921.993 638.134 933.017 639.512 943.723 643.328C953.263 646.72 958.775 653.504 960.577 663.574C961.132 666.837 960.732 670.055 960.331 673.287L960.331 673.289L960.331 673.292C960.119 674.992 959.908 676.697 959.835 678.414C986.017 668.026 1003.72 619.054 995.981 600.61C990.469 608.348 984.427 615.238 974.781 618.312C974.569 609.09 970.117 603.048 962.167 599.55C959.941 598.49 959.623 597.324 959.941 595.098C961.425 585.028 960.153 575.276 956.655 565.736C951.269 551.074 941.284 539.509 931.381 528.039C930.759 527.319 930.138 526.599 929.519 525.88C920.184 515.003 909.606 505.306 899.07 495.649L899.069 495.648L899.068 495.648L899.063 495.643L899.06 495.64C895.841 492.689 892.625 489.742 889.451 486.766C878.003 476.06 867.615 464.506 859.453 451.044C852.669 439.808 848.853 427.618 847.793 414.58C847.793 414.5 847.796 414.419 847.8 414.337C847.807 414.224 847.816 414.109 847.826 413.994C847.894 413.188 847.965 412.355 846.945 411.93C846.296 412.115 846.053 412.624 845.789 413.173C845.751 413.253 845.713 413.333 845.673 413.414C839.525 426.558 837.935 440.444 839.207 454.754C839.843 461.22 842.493 467.262 847.369 471.82C853.249 477.32 859.204 482.783 865.168 488.254L865.17 488.256C869.204 491.956 873.241 495.659 877.261 499.38C889.239 510.404 900.687 521.746 909.591 535.42C912.665 540.19 915.527 545.172 917.859 550.366C917.753 550.472 917.62 550.578 917.488 550.684C917.355 550.79 917.223 550.896 917.117 551.002C917.04 550.887 916.967 550.768 916.895 550.648C916.835 550.547 916.775 550.444 916.716 550.342C916.457 549.895 916.198 549.447 915.845 549.094C898.567 528.742 879.275 510.298 859.135 492.808C848.535 483.586 838.571 473.622 829.667 462.81C817.053 447.44 808.467 430.374 806.665 410.234C806.598 409.667 806.647 408.963 806.695 408.262C806.801 406.735 806.906 405.218 805.817 405.146C804.106 404.975 803.362 406.943 802.693 408.711C802.532 409.135 802.377 409.547 802.213 409.916C792.143 433.448 789.705 457.616 794.899 482.632C795.853 487.19 797.549 491.006 801.789 493.656C807.195 497.154 812.071 501.394 816.523 506.058C823.519 513.372 829.349 521.534 832.847 531.498C832.666 531.408 832.512 531.334 832.378 531.271C832.039 531.111 831.833 531.014 831.681 530.862C825.533 523.23 818.219 516.87 810.163 511.358C801.95 505.841 793.367 500.917 784.785 495.995L784.783 495.993C778.855 492.593 772.929 489.194 767.127 485.6C750.485 475.424 735.539 463.658 726.317 445.956C726.298 445.918 726.279 445.881 726.261 445.843C725.96 445.236 725.637 444.584 724.939 444.684C724.144 444.763 724.064 445.379 723.985 445.995C723.958 446.201 723.932 446.406 723.879 446.592C721.547 456.238 721.547 465.884 723.773 475.53C725.093 481.727 727.582 487.437 730.307 493.686L730.663 494.504C713.597 491.536 696.955 489.522 679.147 491.324C682.777 493.265 685.13 495.745 687.383 498.12L687.385 498.123L687.388 498.125C687.962 498.73 688.53 499.329 689.111 499.91C695.895 506.376 702.679 512.948 708.191 520.58C712.537 526.622 712.113 531.604 706.919 536.586C704.057 539.342 700.771 541.674 697.379 543.582C690.118 547.715 682.831 552.573 675.544 557.43L675.543 557.431C668.255 562.288 660.968 567.146 653.707 571.28C648.366 574.383 643.418 578.393 638.462 582.409L638.461 582.41ZM884.257 556.514C886.059 575.382 898.991 589.692 915.845 589.162C909.591 574.004 899.521 562.874 884.257 556.514ZM714.551 483.904C707.449 479.028 702.785 473.198 699.075 466.52C689.641 449.454 685.931 430.798 684.871 411.612C684.023 395.394 685.507 379.388 690.807 363.806C693.139 356.704 697.273 349.178 701.407 344.938C702.679 351.979 703.952 358.749 705.225 365.52C705.542 367.208 705.859 368.897 706.177 370.59C716.353 335.398 734.797 305.93 765.007 283.564C764.348 287.408 763.689 291.082 763.044 294.674L763.044 294.677L763.043 294.678C762.444 298.017 761.858 301.284 761.297 304.552C761.273 304.659 761.242 304.77 761.208 304.884C761.175 304.996 761.138 305.111 761.101 305.226C760.838 306.041 760.555 306.919 761.297 307.414C762.336 308.106 763.021 307.313 763.642 306.595C763.781 306.435 763.917 306.277 764.053 306.142C777.409 292.892 793.203 284.094 811.223 279.218C825.533 275.402 840.055 274.13 854.895 274.766C872.279 275.508 888.921 279.218 904.715 286.214C927.505 296.39 945.207 312.396 958.139 333.596C967.997 349.814 974.145 367.41 976.795 386.172C979.975 409.704 976.689 432.388 968.739 454.542C961.107 475.742 951.143 495.564 937.257 513.478C935.773 515.386 935.031 515.598 933.229 513.796C927.216 507.87 921.003 502.182 914.793 496.496L914.792 496.495C906.005 488.449 897.225 480.409 889.027 471.714C884.363 466.838 880.123 461.538 875.883 456.239L875.883 456.238L875.883 456.238C874.823 454.86 874.929 454.012 875.777 452.634C885.423 437.37 890.087 420.728 890.405 402.814C890.723 384.37 885.847 367.516 872.597 354.16C852.987 334.338 817.371 336.564 799.563 358.4C786.419 374.512 781.967 392.956 785.677 413.096C786.607 418.339 785.648 423.178 784.684 428.042C784.44 429.274 784.195 430.509 783.981 431.752C781.119 447.228 780.695 462.81 782.603 478.392C782.628 478.648 782.685 478.922 782.742 479.202C782.923 480.08 783.114 481.009 782.391 481.572C781.661 482.14 780.868 481.59 780.109 481.063L780.108 481.062C779.875 480.901 779.646 480.742 779.423 480.618C762.039 471.29 747.835 458.358 737.235 441.716C731.405 432.6 727.165 422.53 723.667 411.188C712.537 434.826 708.827 458.358 714.551 483.904ZM1314.01 567.515C1315.55 568.728 1317.09 569.941 1318.64 571.142C1320.02 572.202 1320.98 576.972 1320.45 578.35C1319.92 579.226 1319.18 579.088 1318.46 578.954C1318.39 578.942 1318.33 578.93 1318.27 578.919C1318.18 578.904 1318.09 578.89 1318.01 578.88C1296.17 576.972 1274.97 579.834 1254.2 586.618L1253.16 586.948C1243.85 589.909 1234.5 592.884 1226.53 598.914C1222.93 601.67 1219 602.094 1214.87 599.55C1194.09 586.618 1172.15 587.36 1149.89 594.25C1137.28 598.172 1126.15 604.956 1116.93 614.39C1107.28 624.248 1098.91 635.166 1090.85 646.402C1074 669.934 1060.11 695.162 1048.24 721.45C1046.33 725.584 1046.22 725.69 1042.62 722.828C1038.06 719.223 1033.56 715.54 1029.05 711.856C1024.55 708.173 1020.04 704.489 1015.48 700.886C1010.82 697.282 1005.73 694.42 1000.33 691.982C998.428 691.138 997.474 690.714 997.308 690.083C997.141 689.446 997.777 688.598 999.055 686.894C1005.73 677.99 1012.73 669.192 1020.04 660.712C1044.63 632.198 1072.72 607.924 1105.69 589.586C1126.57 577.926 1148.73 570.082 1172.58 566.372C1163.88 565.736 1155.09 566.054 1146.39 567.75C1114.7 573.792 1086.29 587.572 1060.22 606.228C1048.87 614.284 1038.49 623.612 1028.84 633.894C1030.96 608.984 1076.12 551.744 1104.84 537.646C1104.19 538.822 1103.54 539.985 1102.91 541.135L1102.9 541.151C1101.07 544.451 1099.31 547.649 1097.42 550.79C1095.62 553.864 1095.51 557.044 1095.62 560.33C1095.62 561.284 1095.73 562.132 1097 562.132C1097.26 562.132 1097.52 562.133 1097.78 562.134C1101 562.149 1104.12 562.163 1106.96 559.906C1115.97 552.592 1125.19 545.49 1134.42 538.388C1147.03 528.636 1160.39 520.262 1176.29 516.87C1176.55 516.812 1176.81 516.748 1177.07 516.684C1178.75 516.277 1180.51 515.848 1182.43 516.764L1182.43 516.769C1178.61 519.629 1174.8 522.489 1171.2 525.35C1168.34 527.682 1165.47 530.014 1162.72 532.558C1160.17 534.89 1159.22 538.812 1160.81 541.144C1162.72 543.794 1165.69 543.9 1168.44 543.158C1172.76 541.958 1177.08 540.657 1181.42 539.35L1181.42 539.349L1181.43 539.347C1184.75 538.345 1188.09 537.339 1191.44 536.374C1206.5 532.028 1221.76 530.438 1237.34 532.24C1262.46 535.208 1284.62 545.278 1304.65 560.33C1307.83 562.662 1310.92 565.088 1314.01 567.515ZM1289.5 767.5H1310.51C1329.24 767.5 1347.67 762.843 1364.15 753.948C1384.58 742.918 1401.11 725.857 1411.5 705.089L1413 702.084C1421.58 684.93 1426.04 666.016 1426.04 646.838V626.798C1426.04 607.504 1421.79 588.447 1413.58 570.986L1411.36 566.272C1402.97 548.409 1389.99 533.086 1373.76 521.859C1355.06 508.927 1332.86 502 1310.13 502H1251.04V521.5C1235.87 518.866 1220.3 519.601 1205.44 523.654L1178.5 531L1200 513.5L1191.84 508.478C1188.68 506.531 1185.03 505.5 1181.32 505.5C1173.56 505.5 1165.91 507.392 1159.05 511.012L1152.54 514.445C1145.53 518.141 1138.86 522.46 1132.63 527.351L1116.5 540L1120.5 521.5L1103.54 528C1103.41 495.982 1089.92 464.814 1066.06 443.464C1053.22 431.973 1043.17 417.701 1036.69 401.735L1014.04 346C1059.57 365.465 1108.58 375.5 1158.09 375.5L1294.75 375.499C1329.69 375.499 1364.35 381.614 1397.17 393.567L1409.71 398.134C1433.1 406.65 1454.88 419.057 1474.13 434.829C1505.78 460.766 1529.61 494.986 1542.95 533.674L1547.46 546.756C1566.01 600.539 1567.08 658.808 1550.52 713.235L1544.08 734.385C1537.4 756.329 1527.36 777.104 1514.31 795.969C1497.63 820.084 1476.3 840.617 1451.7 856.564C1438.64 865.161 1424.66 872.28 1410.02 877.789L1403.74 880.151C1399.59 881.715 1395.32 882.964 1390.98 883.888L1390.2 884.053C1368.49 888.671 1346.35 890.894 1324.16 890.682L1305 890.5C1330.93 853.049 1325.81 802.312 1292.93 770.79L1289.5 767.5ZM1139.5 729.5L1140.48 729.814C1148.14 732.265 1155.52 735.511 1162.5 739.5C1162.5 739.5 1184 737 1203.5 737C1223 737 1246 741.5 1246 741.5V602.5L1235 609C1226.85 615.341 1215.65 616.078 1206.74 610.86L1201 607.5C1181.43 599.112 1158.9 601.491 1141.52 613.782L1140.5 614.5L1131.36 621.312C1120.65 629.289 1112.3 640.008 1107.17 652.339C1103.43 661.357 1101.5 671.027 1101.5 680.793V756.22C1101.5 758.065 1101.74 759.903 1102.22 761.687L1102.54 762.919C1104.36 769.739 1109.8 774.999 1116.67 776.598C1123.09 778.092 1129.84 776.165 1134.5 771.501L1136.63 769.368C1142.2 763.799 1144.76 755.894 1143.5 748.119L1143 745L1139.5 729.5ZM1182.5 831C1193 829 1207.5 825 1214.5 819.5C1217.33 817.273 1220.74 812.343 1223.69 806.764C1230.67 793.581 1222.55 780.548 1212 770C1211.45 769.454 1210.91 768.931 1210.38 768.429C1201.71 760.311 1190.32 756.21 1179.09 752.165C1178.61 751.991 1178.12 751.817 1177.64 751.643C1177.31 751.523 1176.98 751.403 1176.64 751.283C1176.25 751.138 1175.85 750.993 1175.45 750.848C1175.13 750.732 1174.82 750.616 1174.5 750.5L1176.65 753.731C1179.21 757.57 1181.43 761.626 1183.27 765.854C1191.44 784.546 1191.99 805.681 1184.83 824.778L1182.5 831ZM137.5 344C183.03 363.465 232.033 373.5 281.549 373.5L418.21 373.499C453.143 373.499 487.806 379.614 520.631 391.567L526.741 393.793C554.381 403.859 580.123 418.523 602.877 437.167C631.305 460.46 654.575 489.469 670.704 522.493C676.112 533.567 680 541.663 680 542C680 542.204 678.229 543.033 675.621 544.255L675.62 544.256C671.298 546.28 664.677 549.382 660 552.5C653.127 557.082 645.883 561.927 639 568C630.5 575.5 613.5 592.5 613.5 592.5C620.337 596.733 628.306 598.79 636.338 598.397C647.472 597.852 654.517 597.391 667 595.5L630.975 636.929C621.689 647.608 613.657 659.315 607.035 671.822L597.706 689.445C589.69 704.585 585.5 721.456 585.5 738.587C585.5 745.505 586.309 752.4 587.912 759.13L593 780.5L606.5 765.5L606.355 768.18C605.786 778.709 606.085 789.267 607.25 799.746L607.5 802C597 828 595 830.972 553 857C517.5 879 457.5 885.501 439 885.501L159 887L194.316 868.283C203.946 863.179 212.117 855.704 218.057 846.566C224.87 836.084 228.472 823.84 228.419 811.339L227.212 525.294C227.077 493.276 213.38 462.814 189.518 441.464C176.676 429.973 166.628 415.701 160.142 399.735L137.5 344ZM374.5 765.5V500H433.587C456.322 500 478.516 506.927 497.215 519.859C513.449 531.086 526.423 546.409 534.82 564.272L537.036 568.986C545.244 586.447 549.5 605.504 549.5 624.798V644.838C549.5 664.016 545.035 682.93 536.458 700.084L534.956 703.089C524.572 723.857 508.037 740.918 487.604 751.948C471.127 760.843 452.696 765.5 433.972 765.5H374.5Z" fill="white"/>
</svg>
